# AST/ASF file generated using VICON BodyLanguage
# -----------------------------------------------
:version 1.10
:name VICON
:units
  mass 1.0
  length 0.45
  angle deg
:documentation
   .ast/.asf automatically generated from VICON data using
   VICON BodyBuilder and BodyLanguage model FoxedUp or BRILLIANT.MOD
:root
   order TX TY TZ RX RY RZ
   axis XYZ
   position 0 0 0  
   orientation 0 0 0 
:bonedata
  begin
     id 1 
     name lhipjoint
     direction 0.521689 -0.742065 0.420928 
     length 2.47002 
     axis 0 0 0  XYZ
  end
  begin
     id 2 
     name lfemur
     direction 0.34202 -0.939693 0  
     length 7.24654  
     axis 0 0 20  XYZ
    dof rx ry rz
    limits (-160.0 20.0)
           (-70.0 70.0)
           (-60.0 70.0)
  end
  begin
     id 3 
     name ltibia
     direction 0.34202 -0.939693 0   
     length 8.04849   
     axis 0 0 20   XYZ
    dof rx
    limits (-10.0 170.0)
  end
  begin
     id 4 
     name lfoot
     direction 0.0745411 -0.2048 0.975961   
     length 1.72367   
     axis -90 7.62852e-016 20   XYZ
    dof rx rz
    limits (-45.0 90.0)
           (-70.0 20.0)
  end
  begin
     id 5 
     name ltoes
     direction 1.53556e-011 -4.21901e-011 1   
     length 0.87311   
     axis -90 7.62852e-016 20   XYZ
    dof rx
    limits (-90.0 20.0)
  end
  begin
     id 6 
     name rhipjoint
     direction -0.52849 -0.738415 0.418857   
     length 2.48223  
     axis 0 0 0  XYZ 
  end
  begin
     id 7 
     name rfemur
     direction -0.34202 -0.939693 0   
     length 7.15571   
     axis 0 0 -20   XYZ
    dof rx ry rz
    limits (-160.0 20.0)
           (-70.0 70.0)
           (-70.0 60.0)
  end
  begin
     id 8 
     name rtibia
     direction -0.34202 -0.939693 0   
     length 7.81659   
     axis 0 0 -20   XYZ
    dof rx
    limits (-10.0 170.0)
 end
 begin
     id 9 
     name rfoot
     direction -0.0917348 -0.252039 0.963359   
     length 1.84382  
     axis -90 -7.62852e-016 -20   XYZ
    dof rx rz
    limits (-45.0 90.0)
           (-20.0 70.0)
  end
  begin
     id 10 
     name rtoes
     direction -1.53551e-011 -4.21879e-011 1   
     length 0.927771   
     axis -90 -7.62852e-016 -20   XYZ
    dof rx
    limits (-90.0 20.0)
  end
  begin
     id 11 
     name lowerback
     direction 0.00583058 0.999822 0.0179296   
     length 2.1429   
     axis 0 0 0   XYZ
    dof rx ry rz
    limits (-20.0 45.0)
           (-30.0 30.0)
           (-30.0 30.0)
  end
  begin
     id 12 
     name upperback
     direction -0.0137999 0.999752 -0.0175071   
     length 2.14252   
     axis 0 0 0   XYZ
    dof rx ry rz
    limits (-20.0 45.0)
           (-30.0 30.0)
           (-30.0 30.0)
  end
  begin
     id 13 
     name thorax
     direction -0.0158036 0.99955 -0.0254909   
     length 2.1383   
     axis 0 0 0   XYZ
    dof rx ry rz
    limits (-20.0 45.0)
           (-30.0 30.0)
           (-30.0 30.0)
  end
  begin
     id 14 
     name lowerneck
     direction -0.0101179 0.999403 -0.0330262   
     length 1.65808   
     axis 0 0 0   XYZ
    dof rx ry rz
    limits (-20.0 45.0)
           (-30.0 30.0)
           (-30.0 30.0)
  end
  begin
     id 15 
     name upperneck
     direction 0.0497734 0.995978 -0.074501   
     length 1.5897   
     axis 0 0 0   XYZ
    dof rx ry rz
    limits (-20.0 45.0)
           (-30.0 30.0)
           (-30.0 30.0)
  end
  begin
     id 16
     name head
     direction 0.0189524 0.999519 -0.0245438  
     length 1.74024  
     axis 0 0 0   XYZ
    dof rx ry rz
    limits (-20.0 45.0)
           (-30.0 30.0)
           (-30.0 30.0)
  end
  begin
     id 17 
     name lclavicle
     direction 0.945604 0.324422 0.0241537  
     length 3.59089  
     axis 0 0 0   XYZ
    dof ry rz
    limits (-20.0 10.0)
           (0.0 20.0)
  end
  begin
     id 18 
     name lhumerus
     direction 1 -4.48964e-011 -2.63524e-027   
     length 5.2391   
     axis 180 -30 -90   XYZ
    dof rx ry rz
    limits (-60.0 90.0)
           (-90.0 90.0)
           (-90.0 90.0)
  end
  begin
     id 19
     name lradius
     direction 1 -4.48969e-011 3.86978e-028   
     length 3.31467   
     axis 180 -30 -90   XYZ
    dof rx
    limits (-10.0 170.0)
  end
  begin
     id 20
     name lwrist
     direction 1 -4.48963e-011 7.20928e-028   
     length 1.65734   
     axis -5.52449e-016 90 90   XYZ
    dof ry
    limits (-180.0 0.0)
 end
  begin
     id 21 
     name lhand
     direction 1 -4.48964e-011 1.44186e-027   
     length 0.9659   
     axis -9.20027e-016 90 90   XYZ
    dof rx rz
    limits (-90.0 90.0)
           (-45.0 45.0)
  end
  begin
     id 22 
     name lfingers
     direction 1 -4.48965e-011 2.88371e-027   
     length 0.778733   
     axis -1.84005e-015 90 90   XYZ
    dof rx
    limits (0.0 90.0)
  end
  begin
     id 23
     name lthumb
     direction 0.707107 -6.34931e-011 0.707107   
     length 1.11811   
     axis -90 45 2.85299e-015   XYZ
    dof rx rz
    limits (-45.0 45.0)
           (-45.0 45.0)
  end
  begin
     id 24 
     name rclavicle
     direction -0.923762 0.370785 0.0958234   
     length 3.54196  
     axis 0 0 0   XYZ 
    dof ry rz
    limits (-10.0 20.0)
           (-20.0 0.0)
  end
  begin
     id 25 
     name rhumerus
     direction -1 -4.48966e-011 1.18702e-017  
     length 5.30252   
     axis 180 30 90   XYZ
    dof rx ry rz
    limits (-90.0 60.0)
           (-90.0 90.0)
           (-90.0 90.0)
  end
  begin
     id 26 
     name rradius
     direction -1 -4.48966e-011 4.46736e-027   
     length 3.67875   
     axis 180 30 90   XYZ
    dof rx
    limits (-10.0 170.0)
  end
  begin
     id 27 
     name rwrist
     direction -1 -4.48966e-011 7.20928e-028   
     length 1.83937   
     axis -5.52449e-016 -90 -90   XYZ
    dof ry
    limits (-180.0 0.0)
  end
  begin
     id 28
     name rhand
     direction -1 -4.48973e-011 1.44186e-027   
     length 0.594811   
     axis -9.20027e-016 -90 -90   XYZ
    dof rx rz
    limits (-90.0 90.0)
           (-45.0 45.0)
  end
  begin
     id 29
     name rfingers
     direction -1 -4.48963e-011 2.88371e-027   
     length 0.479552   
     axis -1.84005e-015 -90 -90   XYZ
    dof rx
    limits (0.0 90.0)
  end
  begin
     id 30
     name rthumb
     direction -0.707107 -6.34932e-011 0.707107   
     length 0.688544   
     axis -90 -45 -2.85299e-015   XYZ
    dof rx rz
    limits (-45.0 45.0)
           (-45.0 45.0)
  end
:hierarchy
  begin
    root lhipjoint rhipjoint lowerback
    lhipjoint lfemur
    lfemur ltibia
    ltibia lfoot
    lfoot ltoes
    rhipjoint rfemur
    rfemur rtibia
    rtibia rfoot
    rfoot rtoes
    lowerback upperback
    upperback thorax
    thorax lowerneck lclavicle rclavicle
    lowerneck upperneck
    upperneck head
    lclavicle lhumerus
    lhumerus lradius
    lradius lwrist
    lwrist lhand lthumb
    lhand lfingers
    rclavicle rhumerus
    rhumerus rradius
    rradius rwrist
    rwrist rhand rthumb
    rhand rfingers
  end

#!OML:ASF E:\acrobat2\Project_11_07_03\Capture day 1\Session 1\Acrobat.ASF
:FULLY-SPECIFIED
:DEGREES
222
root 9.07717 17.9971 -32.2088 141.886 -87.661 -136.922
lowerback -6.4052 1.06992 3.63341
upperback -4.49177 1.12071 -0.312115
thorax -0.967445 0.425141 -2.29668
lowerneck -2.99743 2.78294 0.833756
upperneck 8.48604 3.29153 3.77041
head 3.19546 1.76588 1.20004
rclavicle 6.96989e-015 2.38542e-015
rhumerus -12.6016 -27.7356 -7.3606
rradius 20.9708
rwrist 18.4369
rhand -6.66202 -49.5032
rfingers 7.12502
rthumb 19.1959 -78.5759
lclavicle 6.96989e-015 2.38542e-015
lhumerus 0.423609 11.551 7.18295
lradius 20.2566
lwrist 4.04126
lhand -6.81817 -5.43345
lfingers 7.12502
lthumb 19.0457 23.6541
rfemur 6.19791 16.0512 14.6055
rtibia -1.90636
rfoot -23.289 -27.9845
rtoes 1.39955
lfemur 8.14358 -8.05043 -5.67317
ltibia -2.99468
lfoot -29.4378 5.03487
ltoes 43.5178
223
root 9.07796 17.9975 -32.211 143.057 -87.5802 -138.073
lowerback -6.49577 1.1312 3.80454
upperback -4.43059 1.1905 -0.380431
thorax -0.845412 0.459519 -2.4573
lowerneck -3.07506 2.81871 0.983713
upperneck 8.40364 3.33828 3.70748
head 3.18463 1.79202 1.15528
rclavicle -7.70291e-015 8.34896e-015
rhumerus -12.6975 -27.7708 -7.35233
rradius 20.9882
rwrist 18.2887
rhand -6.53044 -49.6423
rfingers 7.12502
rthumb 19.3224 -78.7024
lclavicle -7.70291e-015 8.34896e-015
lhumerus 0.512236 10.8968 6.96724
lradius 20.3221
lwrist 4.77175
lhand -6.84028 -5.33606
lfingers 7.12502
lthumb 19.0244 23.7535
rfemur 6.11447 15.9812 14.6038
rtibia -1.86582
rfoot -23.0809 -27.9009
rtoes 1.67424
lfemur 8.14541 -8.0143 -5.64124
ltibia -2.9886
lfoot -29.462 5.10538
ltoes 43.3996
224
root 9.07775 17.9978 -32.2126 144.12 -87.4687 -139.154
lowerback -6.67225 1.21907 4.07081
upperback -4.26244 1.28793 -0.457123
thorax -0.560777 0.512673 -2.67565
lowerneck -3.06977 2.75847 0.751792
upperneck 8.11141 3.26201 3.98656
head 3.07691 1.75449 1.27772
rclavicle -5.66536e-015 -1.39149e-014
rhumerus -12.7661 -28.1959 -7.33168
rradius 20.9423
rwrist 18.4275
rhand -6.45984 -49.6311
rfingers 7.12502
rthumb 19.3903 -78.6844
lclavicle -5.66536e-015 -1.39149e-014
lhumerus 0.725843 10.7443 6.87586
lradius 20.3206
lwrist 5.19001
lhand -6.77631 -5.1139
lfingers 7.12502
lthumb 19.0859 23.9696
rfemur 6.08357 15.9742 14.6635
rtibia -1.83156
rfoot -22.7905 -27.949
rtoes 0.658414
lfemur 8.21031 -8.04731 -5.62418
ltibia -2.99986
lfoot -29.5816 5.31322
ltoes 43.0938
225
root 9.07518 17.9979 -32.2139 146.1 -87.3575 -141.182
lowerback -6.75033 1.26667 4.19441
upperback -4.14688 1.34236 -0.461051
thorax -0.391564 0.544647 -2.74313
lowerneck -3.01147 2.72137 0.653837
upperneck 7.87363 3.22564 4.04633
head 2.98303 1.73317 1.30673
rclavicle -1.40516e-014 1.39149e-015
rhumerus -12.715 -28.3729 -7.35897
rradius 20.9204
rwrist 18.3619
rhand -6.57007 -49.7459
rfingers 7.12502
rthumb 19.2843 -78.8097
lclavicle -1.40516e-014 1.39149e-015
lhumerus 0.814241 11.2263 6.95977
lradius 20.235
lwrist 4.82903
lhand -6.73349 -4.97957
lfingers 7.12502
lthumb 19.1271 24.0999
rfemur 6.13244 16.1393 14.6945
rtibia -1.82814
rfoot -22.9222 -27.8917
rtoes 1.08652
lfemur 8.34827 -8.22382 -5.7153
ltibia -3.03789
lfoot -29.8605 5.53473
ltoes 42.8511
226
root 9.07315 17.998 -32.2159 147.395 -87.1847 -142.514
lowerback -6.62087 1.30855 4.26176
upperback -4.19912 1.4 -0.39588
thorax -0.51302 0.568903 -2.71268
lowerneck -2.92461 2.68578 0.669544
upperneck 7.88712 3.18423 3.96232
head 2.97337 1.70936 1.27364
rclavicle -4.27387e-015 3.97569e-016
rhumerus -12.7016 -28.1021 -7.34773
rradius 20.9671
rwrist 18.1087
rhand -6.72358 -49.9239
rfingers 7.12502
rthumb 19.1367 -79.0024
lclavicle -4.27387e-015 3.97569e-016
lhumerus 0.727808 11.1643 6.9742
lradius 20.2024
lwrist 4.8054
lhand -6.82268 -5.14683
lfingers 7.12502
lthumb 19.0414 23.9411
rfemur 6.12926 16.2346 14.7508
rtibia -1.81439
rfoot -22.997 -27.7184
rtoes 2.1837
lfemur 8.49978 -8.49831 -5.74273
ltibia -3.08087
lfoot -30.2821 5.47957
ltoes 43.2805
227
root 9.07162 17.9975 -32.2163 148.898 -87.0583 -144.027
lowerback -6.49776 1.36732 4.34343
upperback -4.27192 1.47925 -0.369851
thorax -0.649384 0.602222 -2.72972
lowerneck -2.7974 2.66184 0.573658
upperneck 7.83622 3.15383 4.05648
head 2.93001 1.69244 1.31604
rclavicle 1.00635e-014 3.57812e-015
rhumerus -12.7722 -28.0834 -7.2646
rradius 20.9804
rwrist 18.1921
rhand -6.7759 -49.9142
rfingers 7.12502
rthumb 19.0863 -78.9977
lclavicle 1.00635e-014 3.57812e-015
lhumerus 0.647515 10.285 6.82884
lradius 20.2564
lwrist 5.59584
lhand -6.97231 -5.37183
lfingers 7.12502
lthumb 18.8974 23.7302
rfemur 6.06154 16.0895 14.6982
rtibia -1.77853
rfoot -22.6954 -27.5268
rtoes 2.05675
lfemur 8.63489 -8.82992 -5.81458
ltibia -3.15478
lfoot -30.7788 5.22388
ltoes 44.1674
228
root 9.07059 17.9972 -32.2182 149.005 -86.9477 -144.145
lowerback -6.63019 1.48246 4.69409
upperback -4.13339 1.60877 -0.46238
thorax -0.412392 0.669293 -3.00962
lowerneck -2.75166 2.58661 0.358203
upperneck 7.52418 3.05881 4.33269
head 2.81129 1.64475 1.43292
rclavicle -5.479e-015 3.97569e-015
rhumerus -13.0059 -28.6528 -7.14201
rradius 20.9602
rwrist 18.5073
rhand -6.68082 -49.8471
rfingers 7.12502
rthumb 19.1778 -78.9215
lclavicle -5.479e-015 3.97569e-015
lhumerus 0.816017 9.25386 6.59414
lradius 20.395
lwrist 6.77086
lhand -7.14005 -5.3084
lfingers 7.12502
lthumb 18.7361 23.8093
rfemur 6.02719 15.9286 14.7204
rtibia -1.75553
rfoot -22.6016 -27.337
rtoes 1.85081
lfemur 8.72057 -9.0138 -5.78981
ltibia -3.20981
lfoot -31.0643 4.9979
ltoes 44.8525
229
root 9.07021 17.9962 -32.2228 146.348 -86.7268 -141.54
lowerback -6.53597 1.50788 5.04091
upperback -4.12044 1.62882 -0.344537
thorax -0.445145 0.673965 -3.08302
lowerneck -2.87533 2.56652 0.424671
upperneck 7.54928 3.04719 4.07358
head 2.8471 1.6352 1.34001
rclavicle -6.80837e-015 -2.48481e-015
rhumerus -12.9144 -28.6232 -7.09925
rradius 20.9702
rwrist 18.4363
rhand -6.65355 -49.8121
rfingers 7.12502
rthumb 19.204 -78.884
lclavicle -6.80837e-015 -2.48481e-015
lhumerus 0.696047 8.66799 6.49574
lradius 20.4563
lwrist 7.28361
lhand -7.11864 -5.23225
lfingers 7.12502
lthumb 18.7567 23.8834
rfemur 6.03205 15.7698 15.0132
rtibia -1.71734
rfoot -22.3594 -27.2468
rtoes 0.937855
lfemur 8.8153 -9.02274 -5.49409
ltibia -3.21497
lfoot -31.1503 4.85338
ltoes 45.1341
230
root 9.06908 17.9965 -32.2249 148.134 -86.667 -143.325
lowerback -6.53751 1.51551 5.06432
upperback -4.11843 1.63706 -0.304586
thorax -0.442025 0.678029 -3.05422
lowerneck -2.74442 2.58165 0.484098
upperneck 7.31303 3.08981 3.90771
head 2.74476 1.64998 1.26977
rclavicle 9.01364e-015 -6.4605e-016
rhumerus -12.8071 -28.4948 -7.08755
rradius 20.9862
rwrist 18.2523
rhand -6.72 -49.6604
rfingers 7.12502
rthumb 19.1401 -78.7386
lclavicle 9.01364e-015 -6.4605e-016
lhumerus 0.695619 8.89445 6.56121
lradius 20.3667
lwrist 6.96493
lhand -6.94767 -5.15632
lfingers 7.12502
lthumb 18.9211 23.9434
rfemur 5.95042 15.5018 14.8928
rtibia -1.6679
rfoot -22.0209 -27.0653
rtoes 0.156904
lfemur 8.85217 -8.97562 -5.55789
ltibia -3.21511
lfoot -31.202 4.88936
ltoes 45.0917
231
root 9.06858 17.9997 -32.2252 155.308 -86.7373 -150.448
lowerback -6.59958 1.47704 4.71559
upperback -4.13168 1.60055 -0.332446
thorax -0.431209 0.665304 -2.8885
lowerneck -2.65935 2.63861 0.569383
upperneck 7.20216 3.17983 3.74714
head 2.69315 1.69066 1.20191
rclavicle 9.12701e-015 4.57205e-015
rhumerus -12.5425 -28.4058 -7.19541
rradius 20.9971
rwrist 18.0954
rhand -6.68931 -49.6241
rfingers 7.12502
rthumb 19.1696 -78.6994
lclavicle 9.12701e-015 4.57205e-015
lhumerus 0.533758 8.83828 6.47021
lradius 20.3685
lwrist 6.98285
lhand -6.823 -4.84796
lfingers 7.12502
lthumb 19.041 24.24
rfemur 5.79329 15.1982 14.31
rtibia -1.64785
rfoot -21.7437 -26.7829
rtoes -0.210042
lfemur 8.82737 -8.95259 -6.06061
ltibia -3.19306
lfoot -31.3409 4.95759
ltoes 45.0865
